<svg width="647" height="94" viewBox="0 0 647 94" fill="none" xmlns="http://www.w3.org/2000/svg">
<path d="M22.5388 74.183C17.6854 74.183 13.4084 73.2427 9.70776 71.362C6.06776 69.4813 3.00409 67.085 0.516756 64.173L2.79176 61.807C5.21842 64.5977 8.13042 66.8423 11.5278 68.541C14.9251 70.179 18.5954 70.998 22.5388 70.998C27.8168 70.998 32.0028 69.6937 35.0968 67.085C38.2514 64.4763 39.8288 61.1093 39.8288 56.984C39.8288 54.0113 39.2524 51.6453 38.0998 49.886C37.0078 48.1267 35.5518 46.701 33.7318 45.609C31.9118 44.4563 29.8794 43.3947 27.6348 42.424L17.5338 37.874C15.6531 37.0247 13.6511 35.963 11.5278 34.689C9.46509 33.415 7.70576 31.7467 6.24976 29.684C4.79376 27.5607 4.06576 24.8913 4.06576 21.676C4.06576 18.4607 4.88476 15.67 6.52276 13.304C8.16076 10.938 10.3751 9.08766 13.1658 7.753C16.0171 6.41833 19.2324 5.751 22.8118 5.751C26.8158 5.751 30.3344 6.53966 33.3678 8.11699C36.4618 9.63366 38.9491 11.4537 40.8298 13.577L38.7368 15.852C36.8561 13.7893 34.5811 12.121 31.9118 10.847C29.2424 9.573 26.2091 8.93599 22.8118 8.93599C18.2011 8.93599 14.5004 10.0583 11.7098 12.303C8.91909 14.5477 7.52376 17.5507 7.52376 21.312C7.52376 24.042 8.16076 26.2867 9.43476 28.046C10.7088 29.7447 12.2558 31.1097 14.0758 32.141C15.8958 33.1117 17.5641 33.961 19.0808 34.689L29.1818 39.239C31.6691 40.331 33.9744 41.605 36.0978 43.061C38.2211 44.4563 39.9198 46.246 41.1938 48.43C42.5284 50.5533 43.1958 53.3137 43.1958 56.711C43.1958 60.0477 42.3464 63.0507 40.6478 65.72C38.9491 68.3287 36.5528 70.3913 33.4588 71.908C30.3648 73.4247 26.7248 74.183 22.5388 74.183ZM68.8883 73V0.745997H72.1643V22.04V32.869C74.7123 30.2603 77.2907 28.1067 79.8993 26.408C82.5687 24.7093 85.5717 23.86 88.9083 23.86C93.8223 23.86 97.4623 25.3767 99.8283 28.41C102.194 31.3827 103.377 35.963 103.377 42.151V73H100.101V42.606C100.101 37.328 99.1913 33.3847 97.3713 30.776C95.612 28.1673 92.6697 26.863 88.5443 26.863C85.5717 26.863 82.8417 27.6517 80.3543 29.229C77.9277 30.8063 75.1977 33.1723 72.1643 36.327V73H68.8883ZM143.344 74.183C140.857 74.183 138.551 73.728 136.428 72.818C134.365 71.908 132.697 70.5127 131.423 68.632C130.149 66.6907 129.512 64.2033 129.512 61.17C129.512 55.8313 132.03 51.797 137.065 49.067C142.1 46.2763 150.017 44.2743 160.816 43.061C160.937 40.4523 160.695 37.9347 160.088 35.508C159.542 33.0207 158.42 30.958 156.721 29.32C155.022 27.682 152.505 26.863 149.168 26.863C145.771 26.863 142.707 27.5303 139.977 28.865C137.247 30.1997 135.093 31.4737 133.516 32.687L131.878 30.048C132.909 29.32 134.274 28.4707 135.973 27.5C137.732 26.5293 139.734 25.68 141.979 24.952C144.284 24.224 146.741 23.86 149.35 23.86C153.111 23.86 156.054 24.7093 158.177 26.408C160.361 28.046 161.878 30.23 162.727 32.96C163.637 35.69 164.092 38.693 164.092 41.969V73H161.362L160.907 66.63H160.634C158.207 68.632 155.508 70.3913 152.535 71.908C149.623 73.4247 146.559 74.183 143.344 74.183ZM143.617 71.18C146.468 71.18 149.259 70.5127 151.989 69.178C154.719 67.7827 157.661 65.7503 160.816 63.081V45.882C153.9 46.61 148.379 47.6717 144.254 49.067C140.189 50.4017 137.277 52.07 135.518 54.072C133.759 56.0133 132.879 58.349 132.879 61.079C132.879 64.7797 133.941 67.3883 136.064 68.905C138.187 70.4217 140.705 71.18 143.617 71.18ZM203.507 73L185.307 25.043H188.947L200.231 55.983C201.081 58.2883 201.93 60.624 202.779 62.99C203.629 65.2953 204.448 67.5097 205.236 69.633H205.6C206.45 67.5097 207.299 65.2953 208.148 62.99C208.998 60.624 209.817 58.2883 210.605 55.983L221.98 25.043H225.347L207.42 73H203.507ZM265.007 74.183C261.185 74.183 257.636 73.2123 254.36 71.271C251.145 69.269 248.566 66.4177 246.625 62.717C244.684 58.9557 243.713 54.436 243.713 49.158C243.713 43.7587 244.684 39.1783 246.625 35.417C248.566 31.6557 251.145 28.8043 254.36 26.863C257.636 24.861 261.185 23.86 265.007 23.86C267.858 23.86 270.558 24.4363 273.106 25.589C275.715 26.681 277.99 28.319 279.931 30.503C281.933 32.6263 283.48 35.2653 284.572 38.42C285.725 41.5747 286.301 45.154 286.301 49.158C286.301 54.436 285.3 58.9557 283.298 62.717C281.357 66.4177 278.778 69.269 275.563 71.271C272.348 73.2123 268.829 74.183 265.007 74.183ZM265.007 71.18C268.404 71.18 271.438 70.27 274.107 68.45C276.837 66.5693 278.991 63.991 280.568 60.715C282.145 57.3783 282.934 53.526 282.934 49.158C282.934 44.7293 282.145 40.8467 280.568 37.51C278.991 34.1733 276.837 31.5647 274.107 29.684C271.438 27.8033 268.404 26.863 265.007 26.863C261.61 26.863 258.546 27.8033 255.816 29.684C253.147 31.5647 251.023 34.1733 249.446 37.51C247.929 40.8467 247.171 44.7293 247.171 49.158C247.171 53.526 247.929 57.3783 249.446 60.715C251.023 63.991 253.147 66.5693 255.816 68.45C258.546 70.27 261.61 71.18 265.007 71.18ZM313.049 73V25.043H315.779L316.325 32.687H316.507C318.994 30.1997 321.542 28.1067 324.151 26.408C326.76 24.7093 329.732 23.86 333.069 23.86C337.983 23.86 341.623 25.3767 343.989 28.41C346.355 31.3827 347.538 35.963 347.538 42.151V73H344.262V42.606C344.262 37.328 343.352 33.3847 341.532 30.776C339.773 28.1673 336.83 26.863 332.705 26.863C329.732 26.863 327.002 27.6517 324.515 29.229C322.088 30.8063 319.358 33.1723 316.325 36.327V73H313.049ZM376.938 73V5.933H387.494V63.991H415.886V73H376.938ZM448.975 74.274C446.427 74.274 444.395 73.7583 442.878 72.727C441.362 71.635 440.27 70.1183 439.602 68.177C438.935 66.175 438.601 63.8393 438.601 61.17V0.472995H449.066V61.716C449.066 63.1113 449.309 64.1123 449.794 64.719C450.34 65.265 450.917 65.538 451.523 65.538C451.766 65.538 452.009 65.538 452.251 65.538C452.494 65.4773 452.858 65.4167 453.343 65.356L454.617 73.273C454.011 73.5157 453.252 73.728 452.342 73.91C451.432 74.1527 450.31 74.274 448.975 74.274ZM497.647 74.274C493.522 74.274 489.639 73.2427 485.999 71.18C482.42 69.0567 479.508 66.0537 477.263 62.171C475.079 58.2277 473.987 53.4957 473.987 47.975C473.987 42.3937 475.079 37.6617 477.263 33.779C479.508 29.8357 482.42 26.8327 485.999 24.77C489.639 22.7073 493.522 21.676 497.647 21.676C500.68 21.676 503.623 22.2827 506.474 23.496C509.325 24.6487 511.843 26.3473 514.027 28.592C516.211 30.8367 517.94 33.597 519.214 36.873C520.488 40.0883 521.125 43.789 521.125 47.975C521.125 53.4957 520.003 58.2277 517.758 62.171C515.574 66.0537 512.692 69.0567 509.113 71.18C505.594 73.2427 501.772 74.274 497.647 74.274ZM497.647 65.538C500.256 65.538 502.5 64.81 504.381 63.354C506.322 61.898 507.809 59.8657 508.84 57.257C509.871 54.5877 510.387 51.4937 510.387 47.975C510.387 44.4563 509.871 41.3927 508.84 38.784C507.809 36.1147 506.322 34.052 504.381 32.596C502.5 31.0793 500.256 30.321 497.647 30.321C494.978 30.321 492.672 31.0793 490.731 32.596C488.85 34.052 487.394 36.1147 486.363 38.784C485.332 41.3927 484.816 44.4563 484.816 47.975C484.816 51.4937 485.332 54.5877 486.363 57.257C487.394 59.8657 488.85 61.898 490.731 63.354C492.672 64.81 494.978 65.538 497.647 65.538ZM546.83 93.93C545.495 93.93 544.312 93.839 543.281 93.657C542.31 93.475 541.37 93.2323 540.46 92.929L542.462 84.739C542.947 84.8603 543.523 85.012 544.191 85.194C544.858 85.376 545.525 85.467 546.193 85.467C548.923 85.467 551.107 84.557 552.745 82.737C554.383 80.9777 555.657 78.7633 556.567 76.094L557.659 72.636L537.821 22.859H548.468L557.659 48.703C558.447 50.9477 559.206 53.2833 559.934 55.71C560.722 58.076 561.511 60.442 562.3 62.808H562.755C563.361 60.5027 563.998 58.1367 564.666 55.71C565.333 53.2833 566 50.9477 566.668 48.703L574.767 22.859H584.868L566.486 76.003C565.212 79.5823 563.695 82.7067 561.936 85.376C560.237 88.106 558.174 90.199 555.748 91.655C553.321 93.1717 550.348 93.93 546.83 93.93ZM622.103 74.274C617.978 74.274 614.368 73.2427 611.274 71.18C608.18 69.1173 605.784 66.1143 604.085 62.171C602.386 58.2277 601.537 53.4957 601.537 47.975C601.537 42.5757 602.538 37.9043 604.54 33.961C606.603 30.0177 609.242 26.9843 612.457 24.861C615.733 22.7377 619.221 21.676 622.922 21.676C625.834 21.676 628.291 22.1917 630.293 23.223C632.356 24.1937 634.388 25.5587 636.39 27.318L636.026 19.037V0.472995H646.491V73H637.937L637.027 67.358H636.754C634.873 69.2993 632.689 70.9373 630.202 72.272C627.715 73.6067 625.015 74.274 622.103 74.274ZM624.651 65.447C626.774 65.447 628.746 64.9617 630.566 63.991C632.386 63.0203 634.206 61.4733 636.026 59.35V34.962C634.206 33.324 632.386 32.1713 630.566 31.504C628.746 30.776 626.896 30.412 625.015 30.412C622.71 30.412 620.586 31.14 618.645 32.596C616.764 33.9913 615.248 35.9933 614.095 38.602C612.942 41.15 612.366 44.244 612.366 47.884C612.366 51.6453 612.851 54.8607 613.822 57.53C614.793 60.1387 616.188 62.1103 618.008 63.445C619.889 64.7797 622.103 65.447 624.651 65.447Z" fill="#D7E2EB"/>
</svg>
